<?xml version="1.0" encoding="utf-8"?>
<!-- Generator: Adobe Illustrator 22.1.0, SVG Export Plug-In . SVG Version: 6.00 Build 0)  -->
<svg version="1.1" id="Layer_1" xmlns="http://www.w3.org/2000/svg" xmlns:xlink="http://www.w3.org/1999/xlink" x="0px" y="0px"
	 width="460px" height="460px" viewBox="0 0 460 460" enable-background="new 0 0 460 460" xml:space="preserve">
<path fill="#E7354C" d="M346.614,460H113.386C50.765,460,0,409.235,0,346.614V113.386C0,50.765,50.765,0,113.386,0h233.228
	C409.235,0,460,50.765,460,113.386v233.228C460,409.235,409.235,460,346.614,460z"/>
<path fill="#FFFFFF" d="M300.849,157.211l62.983-6.792c12.35-1.235,17.907,12.35,8.645,21.612l-47.546,50.016
	c-4.94,4.94-6.175,11.732-3.087,16.055L349.63,287.5c5.557,9.88-5.557,23.464-17.29,22.229l-59.896-6.175
	c-6.792-0.617-14.202,3.705-17.29,10.497l-45.076,91.387c-6.792,13.585-26.552,13.585-27.787,0l-7.41-91.387
	c-0.617-6.792-6.175-11.115-13.585-9.88l-62.983,6.792c-12.967,1.235-17.907-12.35-8.645-21.612l47.546-49.399
	c4.94-4.94,6.175-11.732,3.087-16.055L113.134,174.5c-5.557-9.88,5.557-23.464,17.29-22.229l60.513,6.175
	c6.792,0.617,14.202-3.705,17.29-9.88l45.076-92.005c6.792-13.585,26.552-13.585,27.787,0l6.792,91.387
	C288.499,153.506,294.057,157.828,300.849,157.211"/>
<path fill="#E7354C" d="M257.625,230.691c-3.087,14.202-17.289,25.317-32.109,25.317c-14.82,0-24.082-11.732-20.994-25.317
	c3.087-13.585,17.29-25.317,32.109-25.317S260.713,216.489,257.625,230.691"/>
</svg>
