<?xml version="1.0" encoding="utf-8"?>
<!-- Generator: Adobe Illustrator 22.1.0, SVG Export Plug-In . SVG Version: 6.00 Build 0)  -->
<svg version="1.1" id="Layer_1" xmlns="http://www.w3.org/2000/svg" xmlns:xlink="http://www.w3.org/1999/xlink" x="0px" y="0px"
	 width="460px" height="460px" viewBox="0 0 460 460" style="enable-background:new 0 0 460 460;" xml:space="preserve">
<style type="text/css">
	.st0{fill:#E7354C;}
	.st1{fill:#FFFFFF;}
</style>
<path class="st0" d="M460,460H0V0h460V460z"/>
<path class="st1" d="M300.8,157.2l63-6.8c12.4-1.2,17.9,12.4,8.6,21.6l-47.5,50c-4.9,4.9-6.2,11.7-3.1,16.1l27.8,49.4
	c5.6,9.9-5.6,23.5-17.3,22.2l-59.9-6.2c-6.8-0.6-14.2,3.7-17.3,10.5l-45.1,91.4c-6.8,13.6-26.6,13.6-27.8,0l-7.4-91.4
	c-0.6-6.8-6.2-11.1-13.6-9.9l-63,6.8c-13,1.2-17.9-12.4-8.6-21.6l47.5-49.4c4.9-4.9,6.2-11.7,3.1-16.1l-27.2-49.4
	c-5.6-9.9,5.6-23.5,17.3-22.2l60.5,6.2c6.8,0.6,14.2-3.7,17.3-9.9l45.1-92c6.8-13.6,26.6-13.6,27.8,0l6.8,91.4
	C288.5,153.5,294.1,157.8,300.8,157.2"/>
<path class="st0" d="M257.6,230.7c-3.1,14.2-17.3,25.3-32.1,25.3s-24.1-11.7-21-25.3c3.1-13.6,17.3-25.3,32.1-25.3
	S260.7,216.5,257.6,230.7"/>
</svg>
