<?xml version="1.0" encoding="utf-8"?>
<!-- Generator: Adobe Illustrator 22.1.0, SVG Export Plug-In . SVG Version: 6.00 Build 0)  -->
<svg version="1.1" id="Layer_1" xmlns="http://www.w3.org/2000/svg" xmlns:xlink="http://www.w3.org/1999/xlink" x="0px" y="0px"
	 width="38px" height="38px" viewBox="0 0 38 38" style="enable-background:new 0 0 38 38;" xml:space="preserve">
<style type="text/css">
	.st0{fill:#F2F3F5;}
	.st1{fill:#313F48;}
</style>
<g>
	<circle class="st0" cx="19" cy="19" r="13.8"/>
	<path class="st1" d="M5.6,5.6C13-1.9,25-1.9,32.4,5.6c7.4,7.4,7.4,19.5,0,26.9s-19.5,7.4-26.9,0S-1.9,13,5.6,5.6z M24.9,16.5
		c0.9-0.9,0.9-2.4,0-3.4c-0.9-0.9-2.4-0.9-3.4,0l0,0l-2.2,2.2c-0.1,0.1-0.4,0.1-0.5,0c0,0,0,0,0,0l-2.2-2.2c-0.9-0.9-2.4-0.9-3.4,0
		s-0.9,2.4,0,3.4l2.2,2.2c0.1,0.1,0.1,0.4,0,0.5c0,0,0,0,0,0l-2.2,2.2c-0.9,0.9-0.9,2.4,0,3.4c0.9,0.9,2.4,0.9,3.4,0l2.2-2.2
		c0.1-0.1,0.4-0.1,0.5,0c0,0,0,0,0,0l2.2,2.2c0.9,0.9,2.4,0.9,3.4,0s0.9-2.4,0-3.4l-2.2-2.2c-0.1-0.1-0.1-0.4,0-0.5c0,0,0,0,0,0
		L24.9,16.5z"/>
</g>
</svg>
