<?xml version="1.0" encoding="utf-8"?>
<!-- Generator: Adobe Illustrator 22.1.0, SVG Export Plug-In . SVG Version: 6.00 Build 0)  -->
<svg version="1.1" id="Layer_1" xmlns="http://www.w3.org/2000/svg" xmlns:xlink="http://www.w3.org/1999/xlink" x="0px" y="0px"
	 width="60px" height="51px" viewBox="0 0 60 51" style="enable-background:new 0 0 60 51;" xml:space="preserve">
<style type="text/css">
	.st0{fill:#FFFFFF;}
</style>
<path class="st0" d="M52.8,15.7c3.6-3.6,3.6-9.4,0-13s-9.4-3.6-13,0l0,0L31,11.4c-0.6,0.6-1.5,0.6-2.1,0c0,0,0,0,0,0l-8.7-8.7
	c-3.6-3.6-9.4-3.6-13,0c-3.6,3.6-3.6,9.4,0,13l0,0l8.7,8.7c0.6,0.6,0.6,1.5,0,2.1c0,0,0,0,0,0l-8.7,8.7c-3.6,3.6-3.6,9.4,0,13
	c3.6,3.6,9.4,3.6,13,0l8.7-8.7c0.6-0.6,1.5-0.6,2.1,0c0,0,0,0,0,0l8.7,8.7c3.6,3.6,9.4,3.6,13,0s3.6-9.4,0-13l-8.7-8.7
	c-0.6-0.6-0.6-1.5,0-2.1c0,0,0,0,0,0L52.8,15.7z"/>
</svg>
